<?xml version="1.0" encoding="UTF-8" standalone="no"?>
<!-- Generator: Adobe Illustrator 15.0.0, SVG Export Plug-In . SVG Version: 6.00 Build 0)  -->

<svg
   xmlns:dc="http://purl.org/dc/elements/1.1/"
   xmlns:cc="http://creativecommons.org/ns#"
   xmlns:rdf="http://www.w3.org/1999/02/22-rdf-syntax-ns#"
   xmlns:svg="http://www.w3.org/2000/svg"
   xmlns="http://www.w3.org/2000/svg"
   xmlns:sodipodi="http://sodipodi.sourceforge.net/DTD/sodipodi-0.dtd"
   xmlns:inkscape="http://www.inkscape.org/namespaces/inkscape"
   version="1.1"
   id="svg3388"
   sodipodi:docname="sydney perl mongers 3d.svg"
   inkscape:version="0.91 r13725"
   x="0px"
   y="0px"
   width="950px"
   height="600px"
   viewBox="0 0 950 600"
   enable-background="new 0 0 950 600"
   xml:space="preserve"><metadata
     id="metadata23"><rdf:RDF><cc:Work
         rdf:about=""><dc:format>image/svg+xml</dc:format><dc:type
           rdf:resource="http://purl.org/dc/dcmitype/StillImage" /></cc:Work></rdf:RDF></metadata><defs
     id="defs21" /><path
     fill="#FF6600"
     d="M517.436,340.408c0.078,5.387,3.137,21.76,0.148,29.014c-1.734,4.212-7.499,7.541-13.083,4.996  c-6,5-3.065,2.99-10.065,6.99c-2,2-3,0-6,1c-3,2-4,2-6,5s-2,7-2,7s3-4,6-5c3,0,3,1,6,0c2,0,2,0,4-1h4c0,0-5,3-6,7s-1,7-1,7s3-4,5-5  c2-2,2-2,4-3s3,0,4-1c1,0,1,0,3-1c2,0,2,1,5,0c8-2,8-3,13-8c4-4,5-10,5-10l3.484-17.022l8.307-13.809c1-8-7.791,7.831-6.791-0.169  c0.521-3.123,1.04-5.968,1.419-7.984c-6.529-1.686-13.857-0.947-20.411-1.716C518.105,335.421,517.728,337.486,517.436,340.408z"
     id="path3" /><path
     fill="#FF6600"
     d="M448.165,231.873c-0.334,0.793-0.59,1.306-0.729,1.445c-2.58-0.611-6.285,2.62-10.079,4.335  c-4.259,1.925-8.591,2.387-10.781,2.084c-8.837-1.223-12.672,7.529-15.859,8.819c-6.443,2.607-2.071,5.641-5.86,10.737  c-3.54,4.762,2.928,8.667,4.521,10.206c1.395,1.348-0.687-2.899-0.942-6.215c-0.187-2.424,1.255-3.915,2.493-4.526  c3.595-1.774,5.038-8.44,9.161-9.36c0.94-0.21,0.376,3.372-1.464,6.896c-1.247,2.389-3.754,3.753-4.179,7.293  c-0.228,1.896-3.443,3.955-2.649,5.887c1.075,2.618,0.262,2.333,1.155,4.884c0.39,1.113-0.049,3.406,0.239,4.891  c0.314,1.616,1.531,3.144,2.298,4.373c1.773,2.844,10.844,1.345,11.343,1.468c0.95,0.234-5.726-1.325-5.617-8.601  c0.053-2.269-0.588-6.083-0.063-8.59c0.531-2.537,2.496-3.095,3.403-5.119c2.966-6.616,5.836-10.754,4.719,1.856  c0.511,0.192,0.843,1.912,1.865,3.264c1.376,1.82,3.498,3.354,4.205,3.199c0.979-0.215-1.614-5.186-1.46-8.827  c0.106-2.529,1.778-4.208,2.45-4.817c7.538-6.841,17.374-12.613,20.387-15.93c0.497-0.331,0.97-0.734,1.426-1.186  C453.686,238.372,451.644,234.007,448.165,231.873z"
     id="path5" /><sodipodi:namedview
     bordercolor="#666666"
     id="namedview3396"
     inkscape:pageshadow="2"
     borderopacity="1"
     objecttolerance="10"
     pagecolor="#ffffff"
     gridtolerance="10"
     guidetolerance="10"
     inkscape:pageopacity="0"
     inkscape:window-width="2560"
     inkscape:window-height="1378"
     showgrid="false"
     inkscape:zoom="0.80212426"
     inkscape:cx="816.73954"
     inkscape:cy="292.22889"
     inkscape:window-x="0"
     inkscape:window-y="33"
     inkscape:window-maximized="1"
     inkscape:current-layer="svg3388" /><title
     id="title3390">Perl 5 Raptor</title><description>Copyright (C) 2012, Sebastian Riedel.</description><g
     id="g3602"
     transform="matrix(45.959753,0,0,45.959753,30.272189,-62.833431)"><path
       d="M18.54,11.622l1.136-1.184c0,0-0.839-0.473-2.111-0.229c-1.272,0.235-1.879,1.103-1.879,1.103l-0.791-0.543l1.022-1.915   c0,0-0.987-0.209-2.245-0.164c-1.256,0.045-2.529,0.941-2.529,0.941S10.77,8.584,9.062,7.163C7.358,5.741,5.307,5.487,5.307,5.487   C5.711,6.188,6.481,8.96,6.481,8.96S5.927,8.277,4.963,7.805C4.19,7.425,3.047,7.327,3.047,7.327l0.581,2.318   c0,0-0.396-0.648-1.481-1.002C1.372,8.389,0.174,8.629,0.174,8.629l1.271,2.63L0,11.717v0.021l0.234,0.15v0.629H0v1.676h19.229   v-1.807l-0.66-0.363L18.54,11.622z M1.879,11.696L0.397,8.799L0.95,8.775l1.5,2.972L1.879,11.696z M4.325,12.209   c0,0-0.183-1.009-0.416-2.119C3.676,8.979,3.212,7.504,3.212,7.504l0.232,0.053c0,0,0.523,0.826,0.866,2.229   c0.311,1.269,0.362,2.247,0.362,2.247L4.325,12.209z M7.338,12.247c0,0-0.275-1.666-0.638-3.218   c-0.363-1.551-1.033-3.23-1.033-3.23l0.441,0.104c0,0,0.785,1.299,1.199,3.055c0.413,1.76,0.482,3.669,0.482,3.669L7.338,12.247z    M13.475,12.245l1.844-3.33l0.396,0.021l-1.754,3.314L13.475,12.245z M14.092,12.295l0.432-0.783l0.291,0.828L14.092,12.295z    M17.189,12.819l-0.455-0.065c0,0,0.873-0.884,1.433-1.423c0.562-0.536,1.06-0.938,1.06-0.938l0.332,0.071   c0,0-0.854,0.825-1.305,1.254C17.805,12.143,17.189,12.819,17.189,12.819z"
       id="path10" /></g><g
     id="g3392"
     transform="translate(454.43526,5.4545588)"><path
       fill="#FF6600"
       d="M11.364,297.54c0,0-0.28,0.397-0.767,0.88C11.092,298.122,11.364,297.54,11.364,297.54z"
       id="path13" /><path
       fill="#FF6600"
       d="M203.65,176.941c0,0,1.67-0.86,1.155-1.043C203.781,176.562,203.65,176.941,203.65,176.941z"
       id="path15" /><path
       fill="#FF6600"
       d="M14.277,281.982L15,280.863C15,280.863,14.766,279.126,14.277,281.982z"
       id="path17" /><path
       fill="#FF6600"
       d="M257,125.953c-0.739-0.462-1.158-1.349-1.886-1.728c-0.923-0.48-2.152-0.428-3.076-0.784   c-0.563-0.217-0.975-0.412-1.546-0.585c-0.524-0.16-1.209-0.301-1.744-0.425c-0.754-0.175-1.52-0.316-2.303-0.426   c-0.639-0.089-1.379,0.166-1.981,0.055c-0.534-0.098-0.927-0.567-1.541-0.581c-1.121-0.024-2.522,0.233-3.748,0.3   c-0.974,0.053-2.218-0.256-3.271-0.152c-1.208,0.12-2.238,0.661-3.569,0.841c-1.066,0.144-2.41-0.239-3.568-0.061   c-1.215,0-2.104,0.6-3.147,0.707c-0.727,0.074-1.492-0.293-2.144-0.169c-0.697,0.134-1.275,0.763-1.894,0.951   c-0.926,0.282-1.689-0.154-2.461,0.246c-1.04,0.54-2.031,1.962-2.852,2.702c-0.616,0.556-1.803,0.699-2.327,1.359   c-0.561,0.705-0.452,1.934-0.941,2.75c-0.525,0.525-1.466,0.527-1.891,1.165c-0.562,0.846-0.57,2.336-0.964,3.017   c-0.643,1.111-1.457,0.95-1.688,1.988c-0.332,1.499,0.132,3.599,0.542,4.83c0,0.529-0.357,1.214-0.211,1.837   c0.198,0.846,0.932,1.642,1.075,2.385c0.213,1.095-0.01,1.798,0.743,2.858c0.491,0.692,1.7,1.229,2.393,1.92   c0.303,0.378,0.156,1.368,0.671,1.89c0.683,0.694,2.053,0.921,2.537,1.278c1.325,0.978,1.914,0.775,3.313,1.471   c1.433,0.711,1.569,2.32,2.725,3.18c1.089,0.811,3.222,0.852,3.754,2.182c0.492,1.232,0.317,2.464-0.227,3.622   c-0.273,0.583-1.81,0.679-2.232,1.215c-0.566,0.716-0.062,1.849-0.734,2.44c-0.306,0.269-1.021,0.685-2.005,1.191   c-1.079,0.556-3.182,0.365-4.72,1.069c-1.027,0.471-2.818,2.75-3.911,3.233c-1.298,0.573-3.614,0.438-4.83,0.96   c-1.186,0.51-1.987,0.948-2.536,1.305c0.515,0.183-1.155,1.043-1.155,1.043s0.132-0.378,1.155-1.043   c-0.357-0.127-1.764,0.072-5.506,1.108c-0.706,0.132-0.68,1.114-1.326,1.231c-2.225,0.404-4.658-0.601-6.316-0.343   c-2.054,0.32-3.211,1.872-4.769,2.052c-1.359,0.158-3.154-1.044-4.431-0.927c-1.209,0.112-1.896,1.544-3.27,1.674   c-1.412,0.134-3.518-1.034-5.354-0.824c-1.566,0.179-2.787,1.72-4.833,1.993c-1.703,0.227-3.939-0.896-5.598-0.718   c-1.655,0.178-2.732,1.658-4.305,1.793c-0.688,0.059-1.911-1.21-2.578-1.158c-1.482,0.116-2.41,1.615-3.815,1.784   c-1.755,0.21-3.949-0.914-5.378-0.852c-0.66,0.029-3.087,1.177-4.837,1.162c-1.16-0.01-3.291-1.455-4.513-1.557   c-1.986-0.167-4.146,1.219-5.065-0.02c-2.597-3.499-3.509-1.317-3.509-1.317s-2.025-4.441-4.688-1.935   c-2.055-1.027,0.156-0.312-2.212-3.263c-0.761-0.949-2.206,0.872-4.151-0.101c-1.194-0.682-1.297-2.553-2.456-3.119   c-1.216-0.593-3.095,0.202-4.193-0.264c-1.85-0.783-0.438-2.242-2.044-3.364c-1.225-0.856-4.839-0.422-4.839-0.422   c-1.621-5.206-1.088-4.48-5.4-3.634c-1.561-0.581-2.049-2.033-3.143-2.759c-1.786-1.186-4.541-0.514-4.844-0.722   c-1.198-0.826-2.163-1.608-3.148-1.836c-1.051-0.243-2.25,0.865-3.342,0.69c-1.373-0.22-2.703-1.732-4.796-2.199   c-0.596-0.132-1.455,0.984-2.146,0.812c-1.553-0.311-2.67-1.821-3.859-2.014c-1.245-0.202-2.548,0.919-3.545,0.81   c-1.506-0.166-2.596-1.515-3.969-1.579c-0.809-0.037-1.859,1.2-2.765,1.163c-0.638-0.026-1.307-0.045-2.031-0.07   c-1.363-0.047-2.701-1.386-4.611-1.577c-2.393-0.342-4.188,0.817-5.465,0.703c-1.346-0.121-2.481-1.662-3.43-1.93   c-0.949-0.268-1.489,0.816-2.276,0.467c-0.602-0.267-1.056-1.854-1.829-2.241c-1.179-0.59-2.317,0.349-3.026,0.05   c-1.696-0.715-2.193-1.257-2.193-4.783c0-0.914,1.169-2.585,1.145-4.185c-0.018-1.101-1.215-1.963-1.263-3.35   c-0.034-1,1.09-2.459,1.032-3.593c-0.054-1.061-1.288-1.788-1.368-2.956c-0.097-1.432,0.953-3.33,0.81-4.906   c-0.133-1.455-1.455-2.577-1.635-4.14c-0.139-1.211,0.876-2.842,0.705-4.111c-0.235-1.75-1.672-3.162-1.976-5.007   c-0.212-1.291,0.727-2.993,0.478-4.323c-0.235-1.257-1.657-2.142-1.928-3.429c-0.092-0.279,0.21-1.794,0.126-2.052   c-0.327-1.012-0.987-0.625-1.211-1.361c-0.399-1.312,0.517-2.617,0.34-3.292c-0.77-2.937-1.26-0.906-4.853-7.374   c-7.896-6.065-3.598-2.013-9.598-6.013c-7-5-8-5-16-8c-7-3-8-2-16-5c-6-3-7-4-14-5c-8-2-9,1-18,2c-23,1-22-1-45,1   c-6,1-6.987,1.558-11,5c-2.976,3.907-1.818,1.877,0.195,4.091l0.89,3.523l1.897-2.523l0.449,2.975l1.992-2.419l1.339,2.75   l1.661-2.416l1.44,2.939L-89,83.953l0.787,2.975l1.653-2.223l1.229,2.782l1.67-2.534l1.11,2.923l1.448-2.364l1,2.755l1.552-2.104   l1.008,2.325l1.67-2.093l1.109,2.278l1.441-2.168l1.22,2.535l1.78-2.545l0.779,2.656l1.882-2.204l1.669,1.948l1.009-1.837   l1.661,2.204l1.008-2.121l1.551,2.129l1.339-2.204l1.229,2.372l1.229-2.033l1.118,2.204l1.661-1.705l0.796,2.154l1.89-1.755   l0.78,2.024l1.236-1.914l1.339,1.881l1.441-1.604l5.975,1.391l5.133,1.576c0,0,9.316,2.559,3.316,4.559   c-5,1-11.188,8.493-11.188,8.493l-2.221-1.466l-0.824,1.677l-1.243-1.198l-1.293,1.653l-1.964-0.967l-0.641,1.958l-1.595-1.382   l-1.162,2.268l-1.229-1.653l-1.236,2.281l-1.543-1.501l-0.898,2.204l-1.457-1.49l-0.882,2.049l-1.881-1.542l-1.009,2.171   l-1.322-1.29l-1.118,2.102l-1.457-1.27l-0.984,2.16l-1.33-1.212l-0.601,2.036c-0.59-0.451-2.359-1.847-1.637-1.248l-1.008,1.661   l-1.584-1.042l-0.873,1.829l-1.67-1.314l-1.151,2.215l-1.518-1.545l-0.797,2.314l-1.796-1.625l-1.094,2.405l-1.788-1.543   l-0.592,2.122l-1.637-1.562l-1.017,1.992l-1.371-1.557l-0.755,2.336l-1.78-1.653l-0.49,2.419l-1.849-1.97l-1,2.534l-1.262-2.074   L-99,119.953c0,0-1,1-2,1s0,3,1,4s1.155-0.026,5.155,0.974c5,1,16-1,32,0c14,1,16.936-0.649,30.936,0.351c10,2,17,2,19,3   S-8,149.953-4,165.953c4,13,5,19,5,30c0,9.477-5.193,25.624-7.271,30.555c3.479,2.134,5.521,6.499,9.982,8.467   c2.297-2.274,4.113-5.905,5.782-9.243c3-6,1.507-1.78,4.507-0.78c0.98,0.49,6.045,11.296,15.531,14.939   c9.275,3.562,16.959,8.532,17.469,10.061c0,3-22,0-24,2c-3,1-4.13,10-10.13,19c-9,14-2.832-0.713-9.832,13.287c-2,3-3.87,4-2.87,6   c1,5,1,6,4,9c2.83,2.123,5.251,0.438,6.429-0.73c-0.55,0.331-1.376,0.309-2.429-1.27c-1-3-2-4,0-6c1-2-1.675-2.87,0.325-5.87   c1-2,5.675-3.13,5.675-3.13l0.108-0.168c0.49-2.855,0.724-1.119,0.724-1.119l-0.724,1.119c-0.203,1.187-0.451,3.16-0.744,6.389   c0,5,0.402,1.104,0.402,6.104c0,4-0.312,5.403,0.688,8.403c2,5,3,5,5,9c2.021,2.516,11.751-4.655,15.828-6.252   c-5.585,0.717-16.373-0.493-13.365-6.698l0.537-3.05c-1.039-3.496,0.13-3,0.13-5c0-3,0.87-5.805,0.87-8.805   c1-14,2.377-7.208,2.377-7.208l1.064,6.468c3.203,14.579,18.462,3.216,15.273,4.649c-4.857,2.184-5.076-1.008-8.576-0.78   c-3.348-4.562-0.399-3.963-1.349-4.77c1.534-4.945,1.587-3.567,1.587-8.567c1-3,2-5,5-6c4-1,7,0,9,3c3,5-1,7,1,14s2,7,5,14   c5,9,7,9,10,18c1.416,7.078,0.827,9.149,0.008,13.3c6.554,0.769,13.882,0.03,20.411,1.716c0.35-1.858,0.581-3.016,0.581-3.016   s2-6,2-9c-1-7-3-4-5-10c-2-5-3-4-3-10c0-5,1-6,2-11v-10v-12l6,10c2,3,5,3,6,7c2,4,1,6,3,10c3,7,3,7,8,12c6,4,7,4,13,5c4,1,8-1,8-1   s1,5,0,9c-1.799,59.39-14.624,24.943-21,44c-3,2-4,0-7,2s-3,2-4,6c-2,3-2,8-2,8s4-5,7-6c2,0,5,1,5,1s0,1,2,2c3,1,3,1,6,0   c5-2,5-3,9-5c0,0-2,2-3,4c-1,3-2,3-2,6c-1,3,0,4,0,5c1,2,2,5,2,5s0-5,2-7c1-2,2-1,4-2s2,0,4-1h2c1-1,2-2,3-4c1-3,0-2,1-5s2-2,3-5   c2-7,3-7,3-15c20.012-38.855,1-8,1-16c0-1,1-9,2-19c0-4,3-6,3-10c1-6,1-7-1-12c-2-4-3-2-5-6c-2-2-1-2-3-5c-1-1-2-2-4-3   c-4-4-6-3-6-7c-1-7,0-7,4-15c4-9,3-10,11-18c10-9,11-9,23-16c22-12,18-9,46-21c27-13,33-23,33-23s6-10,4-18s-8-10-11-12   c-3-1-10-1-12-6c-2-6-1-9,5-12c7-4,11-3,21-2c8,1,14,7,14,7S265,130.953,257,125.953z M-28.351,80.537   c-3,0-5.844,0.325-5.844-1.675c0-1.015,1.2-1.014,2.313-1.533c1.081-0.504,2.053-1.545,3.53-1.545c2,0,4.857,1.39,4.857,3.39   L-28.351,80.537z"
       id="path19" /></g><text
     sodipodi:linespacing="115%"
     id="text4171"
     y="72.650284"
     x="14.960276"
     style="font-style:normal;font-weight:normal;font-size:40px;line-height:114.99999762%;font-family:sans-serif;letter-spacing:0.5999999px;word-spacing:0px;fill:#000000;fill-opacity:1;stroke:none;stroke-width:1px;stroke-linecap:butt;stroke-linejoin:miter;stroke-opacity:1"
     xml:space="preserve"><tspan
       style="font-style:normal;font-variant:normal;font-weight:normal;font-stretch:condensed;font-size:70px;line-height:114.99999762%;font-family:Impact;-inkscape-font-specification:'Impact Condensed';letter-spacing:0.5999999px;fill:#000000;fill-opacity:1"
       y="72.650284"
       x="14.960276"
       id="tspan4173"
       sodipodi:role="line">Sydney</tspan><tspan
       style="font-style:normal;font-variant:normal;font-weight:normal;font-stretch:condensed;font-size:70px;line-height:114.99999762%;font-family:Impact;-inkscape-font-specification:'Impact Condensed';letter-spacing:0.5999999px;fill:#000000;fill-opacity:1"
       id="tspan4175"
       y="153.15028"
       x="14.960276"
       sodipodi:role="line" /><tspan
       style="font-style:normal;font-variant:normal;font-weight:normal;font-stretch:condensed;font-size:70px;line-height:114.99999762%;font-family:Impact;-inkscape-font-specification:'Impact Condensed';letter-spacing:0.5999999px;fill:#000000;fill-opacity:1"
       id="tspan4177"
       y="233.65028"
       x="14.960276"
       sodipodi:role="line">Mongers</tspan></text>
<text
     xml:space="preserve"
     style="font-style:normal;font-weight:normal;font-size:40px;line-height:114.99999762%;font-family:sans-serif;letter-spacing:0.5999999px;word-spacing:0px;fill:#ff6600;fill-opacity:1;stroke:none;stroke-width:1px;stroke-linecap:butt;stroke-linejoin:miter;stroke-opacity:1"
     x="14.960276"
     y="72.650284"
     id="text3351"
     sodipodi:linespacing="115%"><tspan
       sodipodi:role="line"
       id="tspan3353"
       x="14.960276"
       y="72.650284"
       style="font-style:normal;font-variant:normal;font-weight:normal;font-stretch:condensed;font-size:70px;line-height:114.99999762%;font-family:Impact;-inkscape-font-specification:'Impact Condensed';letter-spacing:0.5999999px;fill:#ff6600;fill-opacity:1" /><tspan
       sodipodi:role="line"
       x="14.960276"
       y="153.15028"
       id="tspan3355"
       style="font-style:normal;font-variant:normal;font-weight:normal;font-stretch:condensed;font-size:70px;line-height:114.99999762%;font-family:Impact;-inkscape-font-specification:'Impact Condensed';letter-spacing:0.5999999px;fill:#ff6600;fill-opacity:1">Perl</tspan><tspan
       sodipodi:role="line"
       x="14.960276"
       y="233.65028"
       id="tspan3357"
       style="font-style:normal;font-variant:normal;font-weight:normal;font-stretch:condensed;font-size:70px;line-height:114.99999762%;font-family:Impact;-inkscape-font-specification:'Impact Condensed';letter-spacing:0.5999999px;fill:#ff6600;fill-opacity:1" /></text>
</svg>