<?xml version="1.0" encoding="UTF-8" standalone="no"?>
<!-- Generator: Adobe Illustrator 15.0.0, SVG Export Plug-In . SVG Version: 6.00 Build 0)  -->

<svg
   xmlns:dc="http://purl.org/dc/elements/1.1/"
   xmlns:cc="http://creativecommons.org/ns#"
   xmlns:rdf="http://www.w3.org/1999/02/22-rdf-syntax-ns#"
   xmlns:svg="http://www.w3.org/2000/svg"
   xmlns="http://www.w3.org/2000/svg"
   xmlns:sodipodi="http://sodipodi.sourceforge.net/DTD/sodipodi-0.dtd"
   xmlns:inkscape="http://www.inkscape.org/namespaces/inkscape"
   version="1.1"
   id="svg3388"
   sodipodi:docname="front.svg"
   inkscape:version="0.91 r13725"
   x="0px"
   y="0px"
   width="950px"
   height="600px"
   viewBox="0 0 950 600"
   enable-background="new 0 0 950 600"
   xml:space="preserve"><metadata
     id="metadata23"><rdf:RDF><cc:Work
         rdf:about=""><dc:format>image/svg+xml</dc:format><dc:type
           rdf:resource="http://purl.org/dc/dcmitype/StillImage" /></cc:Work></rdf:RDF></metadata><defs
     id="defs21" /><path
     d="m 552.28787,322.90673 c 0.0976,6.56009 3.9243,26.49851 0.18514,35.33216 -2.16919,5.12922 -9.38106,9.18315 -16.36651,6.08394 -7.50585,6.08881 -3.83424,3.64111 -12.59107,8.51216 -2.50195,2.43552 -3.75292,0 -7.50585,1.21776 -3.75293,2.43553 -5.0039,2.43553 -7.50585,6.08881 -2.50195,3.65329 -2.50195,8.52434 -2.50195,8.52434 0,0 3.75293,-4.87105 7.50585,-6.08881 3.75293,0 3.75293,1.21776 7.50585,0 2.50195,0 2.50195,0 5.00391,-1.21776 l 5.0039,0 c 0,0 -6.25488,3.65328 -7.50586,8.52433 -1.25097,4.87105 -1.25097,8.52434 -1.25097,8.52434 0,0 3.75293,-4.87105 6.25487,-6.08881 2.50196,-2.43553 2.50196,-2.43553 5.0039,-3.65329 2.50196,-1.21776 3.75293,0 5.0039,-1.21776 1.25098,0 1.25098,0 3.75293,-1.21776 2.50195,0 2.50195,1.21776 6.25488,0 10.0078,-2.43553 10.0078,-3.65329 16.26267,-9.7421 5.00391,-4.87105 6.25488,-12.17763 6.25488,-12.17763 l 4.3584,-20.72875 10.39185,-16.81608 c 1.25097,-9.7421 -9.74635,9.5363 -8.49537,-0.2058 0.65176,-3.80307 1.30101,-7.26761 1.77513,-9.72262 -8.16761,-2.05314 -17.33476,-1.15322 -25.53366,-2.08968 -0.42407,2.08603 -0.8957,4.60071 -1.26097,8.15901 z"
     id="path3"
     inkscape:connector-curvature="0"
     style="fill:#ff6600" /><path
     d="m 467.73322,195.54999 c -0.45124,1.10231 -0.7971,1.81541 -0.98489,2.00863 -3.48562,-0.84933 -8.49113,3.64195 -13.61689,6.02589 -5.75397,2.67586 -11.60656,3.31807 -14.56529,2.89688 -11.93892,-1.70004 -17.12007,10.46574 -21.42575,12.25891 -8.70459,3.62388 -2.79795,7.84131 -7.91695,14.92504 -4.78259,6.61945 3.95578,12.04762 6.10794,14.18692 1.88467,1.8738 -0.92814,-4.02977 -1.27266,-8.6392 -0.25264,-3.3695 1.69553,-5.44207 3.36809,-6.2914 4.8569,-2.46596 6.80641,-11.73208 12.37664,-13.01093 1.26996,-0.29191 0.50799,4.68727 -1.97788,9.58583 -1.68472,3.32085 -5.07171,5.21688 -5.6459,10.13768 -0.30803,2.63555 -4.65154,5.49768 -3.57884,8.18327 1.45235,3.63917 0.35398,3.243 1.56043,6.78904 0.5269,1.54713 -0.0662,4.73453 0.32289,6.79876 0.42422,2.24633 2.06841,4.37034 3.10463,6.07872 2.39535,3.95332 14.65042,1.86963 15.32457,2.0406 1.28347,0.32528 -7.73591,-1.84182 -7.58865,-11.95587 0.0716,-3.15404 -0.79439,-8.45572 -0.0851,-11.94059 0.71739,-3.52657 3.37213,-4.30223 4.5975,-7.1157 4.00712,-9.19662 7.88453,-14.94867 6.37545,2.57994 0.69036,0.2669 1.13889,2.65779 2.51963,4.53715 1.859,2.5299 4.72586,4.66225 5.68102,4.44679 1.32265,-0.29886 -2.18053,-7.20883 -1.97248,-12.27003 0.14321,-3.51545 2.40211,-5.84936 3.30999,-6.6959 10.18395,-9.50938 23.47254,-17.53279 27.54314,-22.14361 0.67146,-0.46011 1.31049,-1.0203 1.92655,-1.6486 -6.02823,-2.73425 -8.787,-8.80184 -13.48718,-11.76822 z"
     id="path5"
     inkscape:connector-curvature="0"
     style="fill:#ff6600" /><sodipodi:namedview
     bordercolor="#666666"
     id="namedview3396"
     inkscape:pageshadow="2"
     borderopacity="1"
     objecttolerance="10"
     pagecolor="#ffffff"
     gridtolerance="10"
     guidetolerance="10"
     inkscape:pageopacity="0"
     inkscape:window-width="2560"
     inkscape:window-height="1378"
     showgrid="false"
     inkscape:zoom="1"
     inkscape:cx="381.69734"
     inkscape:cy="312.06714"
     inkscape:window-x="0"
     inkscape:window-y="33"
     inkscape:window-maximized="1"
     inkscape:current-layer="svg3388" /><title
     id="title3390">Perl 5 Raptor</title><description>Copyright (C) 2012, Sebastian Riedel.</description><g
     id="g3602"
     transform="matrix(45.959753,0,0,45.959753,30.272189,-62.833431)"><path
       d="M18.54,11.622l1.136-1.184c0,0-0.839-0.473-2.111-0.229c-1.272,0.235-1.879,1.103-1.879,1.103l-0.791-0.543l1.022-1.915   c0,0-0.987-0.209-2.245-0.164c-1.256,0.045-2.529,0.941-2.529,0.941S10.77,8.584,9.062,7.163C7.358,5.741,5.307,5.487,5.307,5.487   C5.711,6.188,6.481,8.96,6.481,8.96S5.927,8.277,4.963,7.805C4.19,7.425,3.047,7.327,3.047,7.327l0.581,2.318   c0,0-0.396-0.648-1.481-1.002C1.372,8.389,0.174,8.629,0.174,8.629l1.271,2.63L0,11.717v0.021l0.234,0.15v0.629H0v1.676h19.229   v-1.807l-0.66-0.363L18.54,11.622z M1.879,11.696L0.397,8.799L0.95,8.775l1.5,2.972L1.879,11.696z M4.325,12.209   c0,0-0.183-1.009-0.416-2.119C3.676,8.979,3.212,7.504,3.212,7.504l0.232,0.053c0,0,0.523,0.826,0.866,2.229   c0.311,1.269,0.362,2.247,0.362,2.247L4.325,12.209z M7.338,12.247c0,0-0.275-1.666-0.638-3.218   c-0.363-1.551-1.033-3.23-1.033-3.23l0.441,0.104c0,0,0.785,1.299,1.199,3.055c0.413,1.76,0.482,3.669,0.482,3.669L7.338,12.247z    M13.475,12.245l1.844-3.33l0.396,0.021l-1.754,3.314L13.475,12.245z M14.092,12.295l0.432-0.783l0.291,0.828L14.092,12.295z    M17.189,12.819l-0.455-0.065c0,0,0.873-0.884,1.433-1.423c0.562-0.536,1.06-0.938,1.06-0.938l0.332,0.071   c0,0-0.854,0.825-1.305,1.254C17.805,12.143,17.189,12.819,17.189,12.819z"
       id="path10" /></g><g
     id="g3392"
     transform="matrix(1.2066342,0,0,1.2066342,475.51233,-74.916648)"><path
       d="m 11.364,297.54 c 0,0 -0.28,0.397 -0.767,0.88 0.495,-0.298 0.767,-0.88 0.767,-0.88 z"
       id="path13"
       inkscape:connector-curvature="0"
       style="fill:#ff6600" /><path
       d="m 203.65,176.941 c 0,0 1.67,-0.86 1.155,-1.043 -1.024,0.664 -1.155,1.043 -1.155,1.043 z"
       id="path15"
       inkscape:connector-curvature="0"
       style="fill:#ff6600" /><path
       d="M 14.277,281.982 15,280.863 c 0,0 -0.234,-1.737 -0.723,1.119 z"
       id="path17"
       inkscape:connector-curvature="0"
       style="fill:#ff6600" /><path
       d="m 257,125.953 c -0.739,-0.462 -1.158,-1.349 -1.886,-1.728 -0.923,-0.48 -2.152,-0.428 -3.076,-0.784 -0.563,-0.217 -0.975,-0.412 -1.546,-0.585 -0.524,-0.16 -1.209,-0.301 -1.744,-0.425 -0.754,-0.175 -1.52,-0.316 -2.303,-0.426 -0.639,-0.089 -1.379,0.166 -1.981,0.055 -0.534,-0.098 -0.927,-0.567 -1.541,-0.581 -1.121,-0.024 -2.522,0.233 -3.748,0.3 -0.974,0.053 -2.218,-0.256 -3.271,-0.152 -1.208,0.12 -2.238,0.661 -3.569,0.841 -1.066,0.144 -2.41,-0.239 -3.568,-0.061 -1.215,0 -2.104,0.6 -3.147,0.707 -0.727,0.074 -1.492,-0.293 -2.144,-0.169 -0.697,0.134 -1.275,0.763 -1.894,0.951 -0.926,0.282 -1.689,-0.154 -2.461,0.246 -1.04,0.54 -2.031,1.962 -2.852,2.702 -0.616,0.556 -1.803,0.699 -2.327,1.359 -0.561,0.705 -0.452,1.934 -0.941,2.75 -0.525,0.525 -1.466,0.527 -1.891,1.165 -0.562,0.846 -0.57,2.336 -0.964,3.017 -0.643,1.111 -1.457,0.95 -1.688,1.988 -0.332,1.499 0.132,3.599 0.542,4.83 0,0.529 -0.357,1.214 -0.211,1.837 0.198,0.846 0.932,1.642 1.075,2.385 0.213,1.095 -0.01,1.798 0.743,2.858 0.491,0.692 1.7,1.229 2.393,1.92 0.303,0.378 0.156,1.368 0.671,1.89 0.683,0.694 2.053,0.921 2.537,1.278 1.325,0.978 1.914,0.775 3.313,1.471 1.433,0.711 1.569,2.32 2.725,3.18 1.089,0.811 3.222,0.852 3.754,2.182 0.492,1.232 0.317,2.464 -0.227,3.622 -0.273,0.583 -1.81,0.679 -2.232,1.215 -0.566,0.716 -0.062,1.849 -0.734,2.44 -0.306,0.269 -1.021,0.685 -2.005,1.191 -1.079,0.556 -3.182,0.365 -4.72,1.069 -1.027,0.471 -2.818,2.75 -3.911,3.233 -1.298,0.573 -3.614,0.438 -4.83,0.96 -1.186,0.51 -1.987,0.948 -2.536,1.305 0.515,0.183 -1.155,1.043 -1.155,1.043 0,0 0.132,-0.378 1.155,-1.043 -0.357,-0.127 -1.764,0.072 -5.506,1.108 -0.706,0.132 -0.68,1.114 -1.326,1.231 -2.225,0.404 -4.658,-0.601 -6.316,-0.343 -2.054,0.32 -3.211,1.872 -4.769,2.052 -1.359,0.158 -3.154,-1.044 -4.431,-0.927 -1.209,0.112 -1.896,1.544 -3.27,1.674 -1.412,0.134 -3.518,-1.034 -5.354,-0.824 -1.566,0.179 -2.787,1.72 -4.833,1.993 -1.703,0.227 -3.939,-0.896 -5.598,-0.718 -1.655,0.178 -2.732,1.658 -4.305,1.793 -0.688,0.059 -1.911,-1.21 -2.578,-1.158 -1.482,0.116 -2.41,1.615 -3.815,1.784 -1.755,0.21 -3.949,-0.914 -5.378,-0.852 -0.66,0.029 -3.087,1.177 -4.837,1.162 -1.16,-0.01 -3.291,-1.455 -4.513,-1.557 -1.986,-0.167 -4.146,1.219 -5.065,-0.02 -2.597,-3.499 -3.509,-1.317 -3.509,-1.317 0,0 -2.025,-4.441 -4.688,-1.935 -2.055,-1.027 0.156,-0.312 -2.212,-3.263 -0.761,-0.949 -2.206,0.872 -4.151,-0.101 -1.194,-0.682 -1.297,-2.553 -2.456,-3.119 -1.216,-0.593 -3.095,0.202 -4.193,-0.264 -1.85,-0.783 -0.438,-2.242 -2.044,-3.364 -1.225,-0.856 -4.839,-0.422 -4.839,-0.422 -1.621,-5.206 -1.088,-4.48 -5.4,-3.634 -1.561,-0.581 -2.049,-2.033 -3.143,-2.759 -1.786,-1.186 -4.541,-0.514 -4.844,-0.722 -1.198,-0.826 -2.163,-1.608 -3.148,-1.836 -1.051,-0.243 -2.25,0.865 -3.342,0.69 -1.373,-0.22 -2.703,-1.732 -4.796,-2.199 -0.596,-0.132 -1.455,0.984 -2.146,0.812 -1.553,-0.311 -2.67,-1.821 -3.859,-2.014 -1.245,-0.202 -2.548,0.919 -3.545,0.81 -1.506,-0.166 -2.596,-1.515 -3.969,-1.579 -0.809,-0.037 -1.859,1.2 -2.765,1.163 -0.638,-0.026 -1.307,-0.045 -2.031,-0.07 -1.363,-0.047 -2.701,-1.386 -4.611,-1.577 -2.393,-0.342 -4.188,0.817 -5.465,0.703 -1.346,-0.121 -2.481,-1.662 -3.43,-1.93 -0.949,-0.268 -1.489,0.816 -2.276,0.467 -0.602,-0.267 -1.056,-1.854 -1.829,-2.241 -1.179,-0.59 -2.317,0.349 -3.026,0.05 -1.696,-0.715 -2.193,-1.257 -2.193,-4.783 0,-0.914 1.169,-2.585 1.145,-4.185 -0.018,-1.101 -1.215,-1.963 -1.263,-3.35 -0.034,-1 1.09,-2.459 1.032,-3.593 -0.054,-1.061 -1.288,-1.788 -1.368,-2.956 -0.097,-1.432 0.953,-3.33 0.81,-4.906 -0.133,-1.455 -1.455,-2.577 -1.635,-4.14 -0.139,-1.211 0.876,-2.842 0.705,-4.111 -0.235,-1.75 -1.672,-3.162 -1.976,-5.007 -0.212,-1.291 0.727,-2.993 0.478,-4.323 -0.235,-1.257 -1.657,-2.142 -1.928,-3.429 -0.092,-0.279 0.21,-1.794 0.126,-2.052 -0.327,-1.012 -0.987,-0.625 -1.211,-1.361 -0.399,-1.312 0.517,-2.617 0.34,-3.292 -0.77,-2.937 -1.26,-0.906 -4.853,-7.374 -7.896,-6.065 -3.598,-2.013 -9.598,-6.013 -7,-5 -8,-5 -16,-8 -7,-3 -8,-2 -16,-5 -6,-3 -7,-4 -14,-5 -8,-2 -9,1 -18,2 -23,1 -22,-1 -45,1 -6,1 -6.987,1.558 -11,5 -2.976,3.907 -1.818,1.877 0.195,4.091 l 0.89,3.523 1.897,-2.523 0.449,2.975 1.992,-2.419 1.339,2.75 1.661,-2.416 1.44,2.939 1.332,-2.828 0.787,2.975 1.653,-2.223 1.229,2.782 1.67,-2.534 1.11,2.923 1.448,-2.364 1,2.755 1.552,-2.104 1.008,2.325 1.67,-2.093 1.109,2.278 1.441,-2.168 1.22,2.535 1.78,-2.545 0.779,2.656 1.882,-2.204 1.669,1.948 1.009,-1.837 1.661,2.204 1.008,-2.121 1.551,2.129 1.339,-2.204 1.229,2.372 1.229,-2.033 1.118,2.204 1.661,-1.705 0.796,2.154 1.89,-1.755 0.78,2.024 1.236,-1.914 1.339,1.881 1.441,-1.604 5.975,1.391 5.133,1.576 c 0,0 9.316,2.559 3.316,4.559 -5,1 -11.188,8.493 -11.188,8.493 l -2.221,-1.466 -0.824,1.677 -1.243,-1.198 -1.293,1.653 -1.964,-0.967 -0.641,1.958 -1.595,-1.382 -1.162,2.268 -1.229,-1.653 -1.236,2.281 -1.543,-1.501 -0.898,2.204 -1.457,-1.49 -0.882,2.049 -1.881,-1.542 -1.009,2.171 -1.322,-1.29 -1.118,2.102 -1.457,-1.27 -0.984,2.16 -1.33,-1.212 -0.601,2.036 c -0.59,-0.451 -2.359,-1.847 -1.637,-1.248 l -1.008,1.661 -1.584,-1.042 -0.873,1.829 -1.67,-1.314 -1.151,2.215 -1.518,-1.545 -0.797,2.314 -1.796,-1.625 -1.094,2.405 -1.788,-1.543 -0.592,2.122 -1.637,-1.562 -1.017,1.992 -1.371,-1.557 -0.755,2.336 -1.78,-1.653 -0.49,2.419 -1.849,-1.97 -1,2.534 -1.262,-2.074 -0.971,2.962 c 0,0 -1,1 -2,1 -1,0 0,3 1,4 1,1 1.155,-0.026 5.155,0.974 5,1 16,-1 32,0 14,1 16.936,-0.649 30.936,0.351 10,2 17,2 19,3 2,1 4.909,20.675 8.909,36.675 4,13 5,19 5,30 0,9.477 -5.193,25.624 -7.271,30.555 3.479,2.134 5.521,6.499 9.982,8.467 2.297,-2.274 4.113,-5.905 5.782,-9.243 3,-6 1.507,-1.78 4.507,-0.78 0.98,0.49 6.045,11.296 15.531,14.939 9.275,3.562 16.959,8.532 17.469,10.061 0,3 -22,0 -24,2 -3,1 -4.13,10 -10.13,19 -9,14 -2.832,-0.713 -9.832,13.287 -2,3 -3.87,4 -2.87,6 1,5 1,6 4,9 2.83,2.123 5.251,0.438 6.429,-0.73 -0.55,0.331 -1.376,0.309 -2.429,-1.27 -1,-3 -2,-4 0,-6 1,-2 -1.675,-2.87 0.325,-5.87 1,-2 5.675,-3.13 5.675,-3.13 l 0.108,-0.168 C 14.766,279.216 15,280.952 15,280.952 l -0.724,1.119 c -0.203,1.187 -0.451,3.16 -0.744,6.389 0,5 0.402,1.104 0.402,6.104 0,4 -0.312,5.403 0.688,8.403 2,5 3,5 5,9 2.021,2.516 11.751,-4.655 15.828,-6.252 -5.585,0.717 -16.373,-0.493 -13.365,-6.698 l 0.537,-3.05 c -1.039,-3.496 0.13,-3 0.13,-5 0,-3 0.87,-5.805 0.87,-8.805 1,-14 2.377,-7.208 2.377,-7.208 l 1.064,6.468 c 3.203,14.579 18.462,3.216 15.273,4.649 -4.857,2.184 -5.076,-1.008 -8.576,-0.78 -3.348,-4.562 -0.399,-3.963 -1.349,-4.77 1.534,-4.945 1.587,-3.567 1.587,-8.567 1,-3 2,-5 5,-6 4,-1 7,0 9,3 3,5 -1,7 1,14 2,7 2,7 5,14 5,9 7,9 10,18 1.416,7.078 0.827,9.149 0.008,13.3 6.554,0.769 13.882,0.03 20.411,1.716 0.35,-1.858 0.581,-3.016 0.581,-3.016 0,0 2,-6 2,-9 -1,-7 -3,-4 -5,-10 -2,-5 -3,-4 -3,-10 0,-5 1,-6 2,-11 l 0,-10 0,-12 6,10 c 2,3 5,3 6,7 2,4 1,6 3,10 3,7 3,7 8,12 6,4 7,4 13,5 4,1 8,-1 8,-1 0,0 1,5 0,9 -1.799,59.39 -14.624,24.943 -21,44 -3,2 -4,0 -7,2 -3,2 -3,2 -4,6 -2,3 -2,8 -2,8 0,0 4,-5 7,-6 2,0 5,1 5,1 0,0 0,1 2,2 3,1 3,1 6,0 5,-2 5,-3 9,-5 0,0 -2,2 -3,4 -1,3 -2,3 -2,6 -1,3 0,4 0,5 1,2 2,5 2,5 0,0 0,-5 2,-7 1,-2 2,-1 4,-2 2,-1 2,0 4,-1 l 2,0 c 1,-1 2,-2 3,-4 1,-3 0,-2 1,-5 1,-3 2,-2 3,-5 2,-7 3,-7 3,-15 20.012,-38.855 1,-8 1,-16 0,-1 1,-9 2,-19 0,-4 3,-6 3,-10 1,-6 1,-7 -1,-12 -2,-4 -3,-2 -5,-6 -2,-2 -1,-2 -3,-5 -1,-1 -2,-2 -4,-3 -4,-4 -6,-3 -6,-7 -1,-7 0,-7 4,-15 4,-9 3,-10 11,-18 10,-9 11,-9 23,-16 22,-12 18,-9 46,-21 27,-13 33,-23 33,-23 0,0 6,-10 4,-18 -2,-8 -8,-10 -11,-12 -3,-1 -10,-1 -12,-6 -2,-6 -1,-9 5,-12 7,-4 11,-3 21,-2 8,1 14,7 14,7 0,0 1.002,-5.001 -6.998,-10.001 z M -28.351,80.537 c -3,0 -5.844,0.325 -5.844,-1.675 0,-1.015 1.2,-1.014 2.313,-1.533 1.081,-0.504 2.053,-1.545 3.53,-1.545 2,0 4.857,1.39 4.857,3.39 l -4.856,1.363 z"
       id="path19"
       inkscape:connector-curvature="0"
       style="fill:#ff6600" /></g><text
     sodipodi:linespacing="115%"
     id="text4171"
     y="72.650284"
     x="14.960276"
     style="font-style:normal;font-weight:normal;font-size:40px;line-height:114.99999762%;font-family:sans-serif;letter-spacing:0.5999999px;word-spacing:0px;fill:#000000;fill-opacity:1;stroke:none;stroke-width:1px;stroke-linecap:butt;stroke-linejoin:miter;stroke-opacity:1"
     xml:space="preserve"><tspan
       style="font-style:normal;font-variant:normal;font-weight:normal;font-stretch:condensed;font-size:70px;line-height:114.99999762%;font-family:Impact;-inkscape-font-specification:'Impact Condensed';letter-spacing:0.5999999px;fill:#000000;fill-opacity:1"
       y="72.650284"
       x="14.960276"
       id="tspan4173"
       sodipodi:role="line">Sydney</tspan><tspan
       style="font-style:normal;font-variant:normal;font-weight:normal;font-stretch:condensed;font-size:70px;line-height:114.99999762%;font-family:Impact;-inkscape-font-specification:'Impact Condensed';letter-spacing:0.5999999px;fill:#000000;fill-opacity:1"
       id="tspan4175"
       y="153.15028"
       x="14.960276"
       sodipodi:role="line" /><tspan
       style="font-style:normal;font-variant:normal;font-weight:normal;font-stretch:condensed;font-size:70px;line-height:114.99999762%;font-family:Impact;-inkscape-font-specification:'Impact Condensed';letter-spacing:0.5999999px;fill:#000000;fill-opacity:1"
       id="tspan4177"
       y="233.65028"
       x="14.960276"
       sodipodi:role="line">Mongers</tspan></text>
<text
     xml:space="preserve"
     style="font-style:normal;font-weight:normal;font-size:40px;line-height:114.99999762%;font-family:sans-serif;letter-spacing:0.5999999px;word-spacing:0px;fill:#ff6600;fill-opacity:1;stroke:none;stroke-width:1px;stroke-linecap:butt;stroke-linejoin:miter;stroke-opacity:1"
     x="14.960276"
     y="72.650284"
     id="text3351"
     sodipodi:linespacing="115%"><tspan
       sodipodi:role="line"
       id="tspan3353"
       x="14.960276"
       y="72.650284"
       style="font-style:normal;font-variant:normal;font-weight:normal;font-stretch:condensed;font-size:70px;line-height:114.99999762%;font-family:Impact;-inkscape-font-specification:'Impact Condensed';letter-spacing:0.5999999px;fill:#ff6600;fill-opacity:1" /><tspan
       sodipodi:role="line"
       x="14.960276"
       y="153.15028"
       id="tspan3355"
       style="font-style:normal;font-variant:normal;font-weight:normal;font-stretch:condensed;font-size:70px;line-height:114.99999762%;font-family:Impact;-inkscape-font-specification:'Impact Condensed';letter-spacing:0.5999999px;fill:#ff6600;fill-opacity:1">Perl</tspan><tspan
       sodipodi:role="line"
       x="14.960276"
       y="233.65028"
       id="tspan3357"
       style="font-style:normal;font-variant:normal;font-weight:normal;font-stretch:condensed;font-size:70px;line-height:114.99999762%;font-family:Impact;-inkscape-font-specification:'Impact Condensed';letter-spacing:0.5999999px;fill:#ff6600;fill-opacity:1" /></text>
<text
     xml:space="preserve"
     style="font-style:normal;font-weight:normal;font-size:40px;line-height:125%;font-family:sans-serif;letter-spacing:0px;word-spacing:0px;fill:#000000;fill-opacity:1;stroke:none;stroke-width:1px;stroke-linecap:butt;stroke-linejoin:miter;stroke-opacity:1"
     x="756.7406"
     y="258.40704"
     id="text4150"
     sodipodi:linespacing="125%"><tspan
       sodipodi:role="line"
       id="tspan4152"
       x="756.7406"
       y="258.40704"
       style="-inkscape-font-specification:'Impact Condensed';font-family:Impact;font-weight:normal;font-style:normal;font-stretch:condensed;font-variant:normal;font-size:70px">2016</tspan></text>
</svg>