<?xml version="1.0" encoding="utf-8"?>
<!-- Generator: Adobe Illustrator 15.0.0, SVG Export Plug-In . SVG Version: 6.00 Build 0)  -->
<!DOCTYPE svg PUBLIC "-//W3C//DTD SVG 1.1//EN" "http://www.w3.org/Graphics/SVG/1.1/DTD/svg11.dtd">
<svg version="1.1"
	 id="svg3388" xmlns:rdf="http://www.w3.org/1999/02/22-rdf-syntax-ns#" xmlns:svg="http://www.w3.org/2000/svg" xmlns:inkscape="http://www.inkscape.org/namespaces/inkscape" sodipodi:docname="front.svg" inkscape:version="0.91 r13725" xmlns:sodipodi="http://sodipodi.sourceforge.net/DTD/sodipodi-0.dtd" xmlns:cc="http://creativecommons.org/ns#" xmlns:dc="http://purl.org/dc/elements/1.1/"
	 xmlns="http://www.w3.org/2000/svg" xmlns:xlink="http://www.w3.org/1999/xlink" x="0px" y="0px" width="950px"
	 height="1559.055px" viewBox="0 0 950 1559.055" enable-background="new 0 0 950 1559.055" xml:space="preserve">
<text transform="matrix(1 0 0 1 99.0071 328.7422)" fill="#808080" font-family="'Impact'" font-size="256" letter-spacing="-2">Sydney</text>
<text transform="matrix(1 0 0 1 264.929 568.7422)" fill="#808080" font-family="'Impact'" font-size="256" letter-spacing="-2">Perl</text>
<text transform="matrix(1 0 0 1 18.4836 808.7422)" fill="#808080" font-family="'Impact'" font-size="256" letter-spacing="-2">Mongers</text>
<path id="path3" inkscape:connector-curvature="0" fill="#FF6600" d="M551.082,1111.379c-0.489-34.442-16.817,75.498,0.187,35.332
	c-2.169,5.13-9.381,9.184-16.367,6.084c-7.506,6.09-3.834,3.642-12.591,8.513c-2.502,2.437-3.753,0-7.506,1.218
	c-3.753,2.437-5.004,2.437-7.506,6.089c-2.502,3.653-2.502,8.524-2.502,8.524s3.753-4.871,7.506-6.089c3.753,0,3.753,1.218,7.506,0
	c2.502,0,2.502,0,5.004-1.218h5.004c0,0-6.255,3.652-7.506,8.523s-1.251,8.524-1.251,8.524s3.753-4.871,6.255-6.089
	c2.502-2.437,2.502-2.437,5.004-3.653s3.753,0,5.004-1.218c1.251,0,1.251,0,3.753-1.219c2.503,0,2.503,1.219,6.256,0
	c10.008-2.436,10.008-3.652,16.263-9.741c5.004-4.871,6.255-12.179,6.255-12.179l4.358-20.729l10.393-16.816
	c1.25-9.742-9.747,9.537-8.496-0.205c0.652-3.804,1.301-7.268,1.775-9.723c-8.168-2.054-17.335-1.154-25.533-2.09
	C551.92,1105.307,551.448,1107.821,551.082,1111.379L551.082,1111.379z"/>
<path id="path5" inkscape:connector-curvature="0" fill="#FF6600" d="M458.529,987.022c-0.451,1.104-0.797,1.815-0.983,2.009
	c-3.486-0.85-8.491,3.644-13.617,6.025c-5.754,2.676-11.606,3.318-14.565,2.897c-11.938-1.7-17.12,10.466-21.426,12.259
	c-8.704,3.624-2.798,7.842-7.917,14.926c-4.782,6.619,3.956,12.047,6.108,14.187c1.885,1.874-0.93-4.029-1.272-8.64
	c-0.253-3.369,1.695-5.441,3.368-6.291c4.855-2.467,6.806-11.731,12.376-13.012c1.271-0.291,0.508,4.688-1.979,9.586
	c-1.685,3.321-5.071,5.217-5.646,10.139c-0.309,2.635-4.652,5.497-3.579,8.184c1.452,3.64,0.354,3.242,1.561,6.789
	c0.526,1.548-0.065,4.733,0.322,6.799c0.425,2.247,2.068,4.37,3.104,6.079c2.396,3.952,14.649,1.868,15.325,2.04
	c1.282,0.324-7.736-1.843-7.59-11.956c0.071-3.154-0.794-8.455-0.085-11.94c0.718-3.526,3.372-4.302,4.599-7.115
	c4.007-9.195,7.884-14.947,6.375,2.579c0.689,0.269,1.139,2.658,2.52,4.538c1.859,2.53,4.728,4.662,5.683,4.446
	c1.321-0.299-2.182-7.209-1.974-12.271c0.145-3.516,2.402-5.85,3.311-6.695c10.185-9.51,23.473-17.532,27.543-22.145
	c0.672-0.46,1.311-1.021,1.927-1.647C465.988,996.057,463.229,989.989,458.529,987.022L458.529,987.022z"/>
<sodipodi:namedview  id="namedview3396" bordercolor="#666666" inkscape:pageshadow="2" borderopacity="1" objecttolerance="10" pagecolor="#ffffff" gridtolerance="10" guidetolerance="10" inkscape:pageopacity="0" inkscape:window-width="2560" inkscape:window-height="1378" showgrid="false" inkscape:zoom="1" inkscape:cx="381.69734" inkscape:cy="312.06714" inkscape:window-x="0" inkscape:window-y="33" inkscape:window-maximized="1" inkscape:current-layer="svg3388">
	</sodipodi:namedview>
<title  id="title3390">Perl 5 Raptor</title>
<description>Copyright (C) 2012, Sebastian Riedel.</description>
<g id="g3602" transform="matrix(45.959753,0,0,45.959753,30.272189,-62.833431)">
	<path id="path10" d="M18.173,28.887l1.115-1.162c0,0-0.824-0.464-2.072-0.225c-1.249,0.231-1.844,1.083-1.844,1.083l-0.776-0.533
		l1.003-1.88c0,0-0.969-0.205-2.204-0.161c-1.233,0.044-2.482,0.924-2.482,0.924s-0.366-1.028-2.043-2.422
		c-1.673-1.396-3.686-1.645-3.686-1.645c0.397,0.688,1.152,3.409,1.152,3.409s-0.544-0.67-1.49-1.134
		c-0.759-0.373-1.881-0.469-1.881-0.469l0.57,2.275c0,0-0.389-0.636-1.454-0.984c-0.761-0.249-1.937-0.014-1.937-0.014l1.248,2.581
		l-1.323,0.421v0.021v0.79l-0.009,4.98l19.229-0.003v-5.115L18.2,29.28L18.173,28.887z M1.82,28.96l-1.455-2.844l0.543-0.024
		L2.38,29.01L1.82,28.96z M4.221,29.464c0,0-0.18-0.99-0.408-2.08c-0.229-1.09-0.684-2.538-0.684-2.538l0.228,0.052
		c0,0,0.513,0.811,0.85,2.188c0.305,1.246,0.355,2.206,0.355,2.206L4.221,29.464z M7.178,29.501c0,0-0.27-1.635-0.626-3.159
		c-0.356-1.522-1.014-3.17-1.014-3.17l0.433,0.102c0,0,0.771,1.275,1.177,2.999c0.405,1.728,0.473,3.601,0.473,3.601L7.178,29.501z
		 M13.202,29.499l1.81-3.269l0.389,0.021l-1.722,3.253L13.202,29.499z M13.807,29.548l0.424-0.769l0.286,0.813L13.807,29.548z
		 M16.847,30.062L16.4,29.998c0,0,0.857-0.868,1.407-1.397c0.552-0.526,1.04-0.921,1.04-0.921l0.326,0.07
		c0,0-0.838,0.81-1.281,1.231C17.452,29.399,16.847,30.062,16.847,30.062z"/>
</g>
<g id="g3392" transform="matrix(1.2066342,0,0,1.2066342,475.51233,-74.916648)">
	<path id="path13" inkscape:connector-curvature="0" fill="#FF6600" d="M10.366,950.988c0,0-0.28,0.397-0.766,0.881
		C10.094,951.57,10.366,950.988,10.366,950.988z"/>
	<path id="path15" inkscape:connector-curvature="0" fill="#FF6600" d="M202.652,830.389c0,0,1.67-0.859,1.155-1.042
		C202.783,830.01,202.652,830.389,202.652,830.389z"/>
	<path id="path17" inkscape:connector-curvature="0" fill="#FF6600" d="M13.279,935.43l0.723-1.119
		C14.002,934.311,13.768,932.574,13.279,935.43z"/>
	<path id="path19" inkscape:connector-curvature="0" fill="#FF6600" d="M249.371,781.887c-0.74-0.461-1.157-1.348-1.887-1.728
		c-0.923-0.48-2.152-0.428-3.075-0.784c-0.563-0.217-0.975-0.411-1.547-0.584c-0.524-0.16-1.209-0.301-1.743-0.427
		c-0.753-0.175-1.521-0.316-2.303-0.426c-0.639-0.089-1.379,0.166-1.981,0.055c-0.534-0.098-0.927-0.567-1.541-0.581
		c-1.121-0.024-2.522,0.233-3.748,0.299c-0.974,0.053-2.218-0.257-3.27-0.151c-1.208,0.121-2.239,0.661-3.569,0.841
		c-1.066,0.144-2.41-0.239-3.568-0.061c-1.215,0-2.103,0.601-3.147,0.707c-0.728,0.074-1.492-0.293-2.144-0.168
		c-0.698,0.134-1.276,0.762-1.895,0.95c-0.926,0.282-1.689-0.155-2.46,0.246c-1.04,0.541-2.031,1.962-2.852,2.702
		c-0.616,0.556-1.803,0.698-2.328,1.359c-0.561,0.705-0.452,1.933-0.94,2.75c-0.525,0.525-1.467,0.527-1.891,1.165
		c-0.562,0.847-0.57,2.337-0.964,3.017c-0.643,1.11-1.457,0.949-1.687,1.988c-0.333,1.499,0.133,3.598,0.541,4.83
		c0,0.529-0.357,1.214-0.21,1.837c0.197,0.845,0.932,1.641,1.076,2.384c0.213,1.095-0.011,1.798,0.743,2.859
		c0.49,0.691,1.7,1.229,2.393,1.921c0.303,0.378,0.155,1.368,0.671,1.89c0.682,0.694,2.052,0.921,2.536,1.278
		c1.326,0.978,1.914,0.775,3.313,1.471c1.433,0.711,1.569,2.32,2.725,3.18c1.089,0.811,3.222,0.851,3.754,2.182
		c0.492,1.233,0.317,2.464-0.227,3.623c-0.274,0.583-1.81,0.68-2.232,1.216c-0.566,0.715-0.062,1.849-0.734,2.439
		c-0.306,0.269-1.021,0.685-2.005,1.19c-1.08,0.556-3.182,0.365-4.72,1.069c-1.027,0.471-2.818,2.75-3.911,3.232
		c-1.297,0.573-3.614,0.439-4.83,0.961c-1.186,0.51-1.987,0.948-2.536,1.305c0.515,0.184-1.155,1.043-1.155,1.043
		s0.132-0.378,1.155-1.043c-0.357-0.125-1.764,0.072-5.506,1.108c-0.707,0.133-0.681,1.114-1.327,1.231
		c-2.225,0.406-4.658-0.601-6.316-0.342c-2.054,0.32-3.211,1.873-4.769,2.052c-1.359,0.158-3.154-1.044-4.431-0.927
		c-1.209,0.112-1.896,1.543-3.271,1.674c-1.411,0.134-3.517-1.034-5.354-0.824c-1.566,0.179-2.787,1.72-4.833,1.993
		c-1.703,0.227-3.939-0.896-5.596-0.718c-1.655,0.178-2.732,1.658-4.306,1.793c-0.688,0.058-1.911-1.211-2.578-1.157
		c-1.482,0.116-2.41,1.615-3.815,1.784c-1.755,0.21-3.949-0.914-5.378-0.851c-0.66,0.028-3.087,1.177-4.837,1.161
		c-1.161-0.01-3.292-1.454-4.514-1.556c-1.986-0.167-4.145,1.219-5.065-0.019c-2.597-3.5-3.509-1.318-3.509-1.318
		s-2.025-4.442-4.688-1.934c-2.056-1.028,0.155-0.312-2.213-3.263c-0.762-0.949-2.205,0.872-4.15-0.101
		c-1.195-0.682-1.297-2.553-2.456-3.118c-1.216-0.594-3.095,0.202-4.193-0.265c-1.85-0.783-0.438-2.243-2.044-3.364
		c-1.225-0.855-4.839-0.422-4.839-0.422c-1.621-5.206-1.088-4.48-5.4-3.635c-1.561-0.58-2.048-2.032-3.143-2.758
		c-1.786-1.186-4.541-0.515-4.845-0.722c-1.198-0.826-2.163-1.608-3.147-1.836c-1.051-0.244-2.25,0.864-3.342,0.69
		c-1.373-0.22-2.703-1.732-4.796-2.2c-0.596-0.131-1.455,0.984-2.146,0.813c-1.552-0.311-2.67-1.821-3.859-2.014
		c-1.245-0.202-2.548,0.919-3.545,0.809c-1.506-0.166-2.596-1.515-3.969-1.579c-0.809-0.036-1.859,1.2-2.765,1.163
		c-0.639-0.026-1.307-0.045-2.031-0.07c-1.363-0.047-2.702-1.386-4.612-1.577c-2.392-0.341-4.187,0.817-5.465,0.703
		c-1.346-0.121-2.481-1.662-3.43-1.93c-0.949-0.268-1.489,0.817-2.276,0.467c-0.602-0.267-1.056-1.854-1.829-2.241
		c-1.179-0.59-2.317,0.35-3.026,0.05c-1.696-0.715-2.192-1.257-2.192-4.783c0-0.914,1.169-2.585,1.144-4.185
		c-0.018-1.102-1.215-1.963-1.263-3.35c-0.034-1,1.089-2.46,1.032-3.593c-0.053-1.062-1.288-1.789-1.368-2.956
		c-0.097-1.433,0.953-3.33,0.809-4.906c-0.134-1.454-1.454-2.577-1.635-4.14c-0.139-1.212,0.877-2.842,0.705-4.111
		c-0.236-1.751-1.672-3.161-1.976-5.008c-0.212-1.292,0.727-2.993,0.478-4.323c-0.236-1.257-1.658-2.141-1.928-3.427
		c-0.092-0.28,0.21-1.795,0.125-2.052c-0.327-1.012-0.987-0.625-1.212-1.361c-0.398-1.311,0.516-2.617,0.341-3.292
		c-0.771-2.936-1.26-0.906-4.854-7.373c-7.896-6.065-3.597-2.014-9.598-6.013c-7-5-8-5-16-8.001c-7.001-2.999-8-1.999-16-5
		c-6-2.999-7-4.001-14-5c-8-1.999-9.001,1-18,2.001c-22.999,1-22-1-44.999,1c-6,1-6.988,1.557-11,5
		c-2.976,3.907-1.818,1.876,0.195,4.089l0.889,3.524l1.897-2.523l0.449,2.975l1.992-2.419l1.339,2.749l1.661-2.415l1.44,2.939
		l1.332-2.829l0.787,2.974l1.653-2.223l1.229,2.782l1.67-2.535l1.11,2.923l1.448-2.363l1,2.755l1.552-2.104l1.008,2.324l1.67-2.093
		l1.109,2.277l1.441-2.167l1.22,2.535l1.781-2.545l0.779,2.656l1.882-2.205l1.67,1.949l1.008-1.836l1.662,2.204l1.008-2.121
		l1.551,2.129l1.339-2.203l1.229,2.371l1.229-2.033l1.118,2.205l1.661-1.705l0.796,2.154l1.891-1.755l0.779,2.024l1.237-1.914
		l1.339,1.881l1.441-1.604l5.974,1.391l5.134,1.576c0,0,9.315,2.559,3.316,4.56c-5,1-11.188,8.493-11.188,8.493l-2.221-1.466
		l-0.825,1.677l-1.242-1.198l-1.292,1.653l-1.964-0.966l-0.641,1.958l-1.594-1.382l-1.161,2.269l-1.229-1.653l-1.236,2.281
		l-1.543-1.501l-0.898,2.205l-1.457-1.492l-0.882,2.049l-1.881-1.542l-1.009,2.171l-1.322-1.29l-1.118,2.102l-1.457-1.27
		l-0.984,2.159l-1.33-1.212l-0.601,2.036c-0.59-0.452-2.359-1.848-1.636-1.25l-1.008,1.662l-1.584-1.042l-0.873,1.829l-1.67-1.314
		l-1.151,2.214l-1.518-1.543l-0.797,2.314l-1.796-1.625l-1.094,2.405l-1.788-1.543l-0.592,2.122l-1.637-1.562l-1.017,1.993
		l-1.371-1.557l-0.754,2.336l-1.781-1.653l-0.49,2.418l-1.849-1.97l-1,2.533l-1.263-2.073l-0.971,2.962c0,0-1,1-2,1
		c-1,0,0,3,1,4.001c1,1,1.155-0.026,5.155,0.974c5,1,16-1,32,0c14.001,1,16.936-0.649,30.937,0.35c10,2.001,17,2.001,19,2.999
		c2,1,4.909,20.675,8.909,36.676c4,12.999,5,19,5,29.999c0,9.476-5.193,25.623-7.271,30.555c3.478,2.134,5.52,6.499,9.981,8.467
		c2.298-2.274,4.112-5.906,5.783-9.243c2.999-6,1.507-1.78,4.506-0.78c0.98,0.49,6.046,11.297,15.531,14.939
		c9.277,3.562,16.959,8.532,17.469,10.061c0,3-22,0-24,2.001c-3,1-4.13,9.999-10.13,19c-9,14-2.832-0.713-9.832,13.287
		c-2,3-3.87,4.001-2.87,6c1,5,1,6,4,9.001c2.83,2.123,5.251,0.438,6.429-0.73c-0.55,0.331-1.376,0.309-2.43-1.27c-1-3-2-4,0-6
		c1-2.001-1.674-2.871,0.325-5.869c1-2.001,5.675-3.13,5.675-3.13l0.108-0.167c0.49-2.854,0.724-1.119,0.724-1.119l-0.724,1.119
		c-0.202,1.186-0.451,3.16-0.744,6.389c0,5,0.402,1.105,0.402,6.104c0,4.001-0.312,5.403,0.688,8.404c2,5,3,5,5,9
		c2.021,2.515,11.751-4.654,15.828-6.251c-5.585,0.715-16.374-0.494-13.365-6.698l0.537-3.05c-1.039-3.496,0.129-2.999,0.129-5
		c0-2.999,0.87-5.805,0.87-8.805c1-14.001,2.377-7.209,2.377-7.209l1.064,6.468c3.203,14.579,18.462,3.216,15.273,4.65
		c-4.857,2.184-5.076-1.008-8.576-0.78c-3.347-4.562-0.399-3.963-1.348-4.77c1.534-4.945,1.586-3.567,1.586-8.567c1-3,2.001-5,5-6
		c4.001-1,7.001,0,9.001,3c2.999,5-1,7,1,14.001c2,6.999,2,6.999,5,14.001c5,9,7,9,10,17.999c1.416,7.078,0.827,9.149,0.008,13.3
		c6.554,0.769,13.882,0.03,20.41,1.716c0.35-1.858,0.58-3.016,0.58-3.016s2.001-6,2.001-9.001c-1-7-2.999-4-5-10
		c-2-4.999-2.999-4-2.999-9.999c0-5,1-6,2-11v-10v-12l6,9.998c2.001,3.001,5,3.001,6,7.001c2.001,4,1,6,3,9.999
		c2.999,7.001,2.999,7.001,7.999,12.001c6,4,7,4,12.999,5c4,1,8-1,8-1s1,5,0,9.001c-1.799,59.389-14.624,24.943-21,44
		c-2.999,2-4.001,0-7,2c-3,2-3,2-4.001,6c-2,3-2,8-2,8s4-5,7-6c2,0,5,1,5,1s0,1,2,2c3,1,3,1,6,0c5-2,5-2.999,9.001-5
		c0,0-2,2.001-2.999,4c-1,3-2.001,3-2.001,6c-1,3,0,4,0,5c1,2.001,2.001,5,2.001,5s0-5,2-7c1-2,2-1,4-2c2.001-1,2.001,0,4.001-1h2
		c1-1,2-2,3-4c1-3,0-2,1-5c1-2.999,2.001-2,2.999-5c2.001-7,3-7,3-15c20.011-38.855,1-7.999,1-16c0-1,1-9.001,2.001-19.001
		c0-4,2.999-6,2.999-10c1-6,1-6.999-1-11.998c-2-4-3-2.001-5-6c-2-2.001-1-2.001-3-5c-1-1-2-2.001-4-3c-4-4-6-2.999-6-7
		c-1-7,0-7,4.001-15c4-9,2.999-10,11-17.999c10-9.001,11-9.001,23-16c22-12,17.999-9,46-21c27-12.999,33-23,33-23s6-10,4-17.999
		c-2-8.001-8-10-11-12.001c-2.999-1-9.999-1-12-6c-2.001-6-1-9.001,5-12c7-4,11-3,21-2.001c8,1,14,7.001,14,7.001
		S257.372,786.887,249.371,781.887z M-35.979,736.471c-3,0-5.844,0.325-5.844-1.674c0-1.016,1.2-1.014,2.313-1.534
		c1.081-0.503,2.052-1.543,3.529-1.543c2.001,0,4.858,1.39,4.858,3.389L-35.979,736.471z"/>
</g>
<text transform="matrix(1 0 0 1 229.572 1506.9785)" fill="#808080" font-family="'Impact'" font-size="247.4332">2016</text>
</svg>
