<?xml version="1.0" encoding="UTF-8" standalone="no"?>
<svg
   xmlns:dc="http://purl.org/dc/elements/1.1/"
   xmlns:cc="http://creativecommons.org/ns#"
   xmlns:rdf="http://www.w3.org/1999/02/22-rdf-syntax-ns#"
   xmlns:svg="http://www.w3.org/2000/svg"
   xmlns="http://www.w3.org/2000/svg"
   xmlns:sodipodi="http://sodipodi.sourceforge.net/DTD/sodipodi-0.dtd"
   xmlns:inkscape="http://www.inkscape.org/namespaces/inkscape"
   version="1.1"
   id="svg3388"
   inkscape:version="0.91 r13725"
   sodipodi:docname="sydney perl mongers.svg"
   width="950"
   height="600">
  <metadata
     id="metadata3400">
    <rdf:RDF>
      <cc:Work
         rdf:about="">
        <dc:format>image/svg+xml</dc:format>
        <dc:type
           rdf:resource="http://purl.org/dc/dcmitype/StillImage" />
        <dc:title>Perl 5 Raptor</dc:title>
      </cc:Work>
    </rdf:RDF>
  </metadata>
  <defs
     id="defs3398" />
  <sodipodi:namedview
     pagecolor="#ffffff"
     bordercolor="#666666"
     borderopacity="1"
     objecttolerance="10"
     gridtolerance="10"
     guidetolerance="10"
     inkscape:pageopacity="0"
     inkscape:pageshadow="2"
     inkscape:window-width="3840"
     inkscape:window-height="2070"
     id="namedview3396"
     showgrid="false"
     inkscape:zoom="4.5375"
     inkscape:cx="594.71042"
     inkscape:cy="360.25267"
     inkscape:window-x="0"
     inkscape:window-y="46"
     inkscape:window-maximized="1"
     inkscape:current-layer="svg3388" />
  <title
     id="title3390">Perl 5 Raptor</title>
  <g
     transform="matrix(45.959753,0,0,45.959753,30.272189,-62.833431)"
     id="g3602"
     style="fill:#fcd116;fill-opacity:1">
    <path
       inkscape:connector-curvature="0"
       d="m 18.54,11.62 1.136,-1.184 c 0,0 -0.839,-0.473 -2.111,-0.229 -1.272,0.235 -1.879,1.103 -1.879,1.103 l -0.791,-0.543 1.022,-1.915 c 0,0 -0.987,-0.209 -2.245,-0.164 -1.256,0.045 -2.529,0.941 -2.529,0.941 0,0 -0.373,-1.047 -2.081,-2.468 C 7.358,5.739 5.307,5.485 5.307,5.485 5.711,6.186 6.481,8.958 6.481,8.958 6.481,8.958 5.927,8.275 4.963,7.803 4.19,7.423 3.047,7.325 3.047,7.325 l 0.581,2.318 c 0,0 -0.396,-0.648 -1.481,-1.002 C 1.372,8.387 0.174,8.627 0.174,8.627 l 1.271,2.63 -1.445,0.458 0,0.021 0.234,0.15 0,0.629 -0.234,0 0,1.676 19.229,0 0,-1.807 -0.66,-0.363 L 18.54,11.62 Z M 1.879,11.694 0.397,8.797 0.95,8.773 2.45,11.745 1.879,11.694 Z m 2.446,0.513 c 0,0 -0.183,-1.009 -0.416,-2.119 C 3.676,8.977 3.212,7.502 3.212,7.502 l 0.232,0.053 c 0,0 0.523,0.826 0.866,2.229 0.311,1.269 0.362,2.247 0.362,2.247 l -0.347,0.176 z m 3.013,0.038 c 0,0 -0.275,-1.666 -0.638,-3.218 C 6.337,7.476 5.667,5.797 5.667,5.797 l 0.441,0.104 c 0,0 0.785,1.299 1.199,3.055 0.413,1.76 0.482,3.669 0.482,3.669 l -0.451,-0.38 z m 6.137,-0.002 1.844,-3.33 0.396,0.021 -1.754,3.314 -0.486,-0.005 z m 0.617,0.05 0.432,-0.783 0.291,0.828 -0.723,-0.045 z m 3.097,0.524 -0.455,-0.065 c 0,0 0.873,-0.884 1.433,-1.423 0.562,-0.536 1.06,-0.938 1.06,-0.938 l 0.332,0.071 c 0,0 -0.854,0.825 -1.305,1.254 -0.449,0.425 -1.065,1.101 -1.065,1.101 z"
       id="path3604"
       style="fill:#000000;fill-opacity:1" />
  </g>
  <description>Copyright (C) 2012, Sebastian Riedel.</description>
  <g
     id="g3392"
     transform="translate(454.43526,5.4545588)"
     style="fill:#008751;fill-opacity:1">
    <path
       d="m 273,205 c -8,8 -7,9 -11,18 -4,8 -5,8 -4,15 0,4 2,3 6,7 2,1 3,2 4,3 2,3 1,3 3,5 2,4 3,2 5,6 2,5 2,6 1,12 0,4 -3,6 -3,10 -1,10 -2,18 -2,19 0,8 19.01202,-22.85557 -1,16 0,8 -1,8 -3,15 -1,3 -2,2 -3,5 -1,3 0,2 -1,5 -1,2 -2,3 -3,4 l -2,0 c -2,1 -2,0 -4,1 -2,1 -3,0 -4,2 -2,2 -2,7 -2,7 0,0 -1,-3 -2,-5 0,-1 -1,-2 0,-5 0,-3 1,-3 2,-6 1,-2 3,-4 3,-4 -4,2 -4,3 -9,5 -3,1 -3,1 -6,0 -2,-1 -2,-2 -2,-2 0,0 -3,-1 -5,-1 -3,1 -7,6 -7,6 0,0 0,-5 2,-8 1,-4 1,-4 4,-6 3,-2 4,0 7,-2 6.37644,-19.05612 19.20174,15.39028 21,-44 1,-4 0,-9 0,-9 0,0 -4,2 -8,1 -6,-1 -7,-1 -13,-5 -5,-5 -5,-5 -8,-12 -2,-4 -1,-6 -3,-10 -1,-4 -4,-4 -6,-7 l -6,-10 0,12 0,10 c -1,5 -2,6 -2,11 0,6 1,5 3,10 2,6 4,3 5,10 0,3 -2,9 -2,9 0,0 -1,5 -2,11 -1,8 7.79181,-7.83031 6.79181,0.16969 L 213.4843,317.97817 210,335 c 0,0 -1,6 -5,10 -5,5 -5,6 -13,8 -3,1 -3,0 -5,0 -2,1 -2,1 -3,1 -1,1 -2,0 -4,1 -2,1 -2,1 -4,3 -2,1 -5,5 -5,5 0,0 0,-3 1,-7 1,-4 6,-7 6,-7 l -4,0 c -2,1 -2,1 -4,1 -3,1 -3,0 -6,0 -3,1 -6,5 -6,5 0,0 0,-4 2,-7 2,-3 3,-3 6,-5 3,-1 4,1 6,-1 7,-4 4.06585,-1.99022 10.06585,-6.99022 5.5841,2.54553 11.34876,-0.78356 13.08335,-4.99492 C 198.13747,322.75974 195.0782,306.38683 195,301 c 1,-10 3,-10 1,-20 -3,-9 -5,-9 -10,-18 -3,-7 -3,-7 -5,-14 -2,-7 2,-9 -1,-14 -2,-3 -5,-4 -9,-3 -3,1 -4,3 -5,6 0,5 -0.0526,3.62259 -1.58704,8.56749 0.94964,0.80727 -1.99856,0.2077 1.34872,4.77002 3.50012,-0.22763 3.71887,2.96431 8.57683,0.78043 3.18823,-1.43325 -12.07109,9.92993 -15.27353,-4.64982 L 158,241 c 0,0 -1.37666,-6.7912 -2.37666,7.2088 0,3 -0.87003,5.80505 -0.87003,8.80505 0,2 -1.16854,1.50413 -0.12997,5 l -0.53692,3.05046 c -3.00778,6.2049 7.77973,7.4151 13.36552,6.69745 -4.07766,1.59697 -13.80745,8.76816 -15.8286,6.25209 -2,-4 -3,-4 -5,-9 -1,-3 -0.68832,-4.40253 -0.68832,-8.40253 0,-5 -0.40252,-1.10408 -0.40252,-6.10408 C 146.5325,243.50724 147,247 147,247 l -0.83153,1.28641 c 0,0 -4.67509,1.12997 -5.67509,3.12997 -2,3 0.67509,3.87003 -0.32491,5.87003 -2,2 -1,3 0,6 2,3 3.19495,0.3899 3.19495,0.3899 0,0 -3.19495,4.6101 -7.19495,1.6101 -3,-3 -3,-4 -4,-9 -1,-2 0.87003,-3 2.87003,-6 7,-14 0.83153,0.71359 9.83153,-13.28641 6,-9 7.12997,-18 10.12997,-19 2,-2 24,1 24,-2 -0.50978,-1.52934 -8.19279,-6.49896 -17.46875,-10.06093 C 152.04508,202.29639 146.98044,191.49022 146,191 c -3,-1 -1.50662,-5.22021 -4.50662,0.77979 -2,4 -4.20758,8.4284 -7.20758,10.4284 -3.01325,3.31663 -12.84893,9.08866 -20.38692,15.9302 -0.67159,0.60954 -2.3439,2.28797 -2.45076,4.8174 -0.15383,3.64162 2.43986,8.61219 1.46067,8.82694 -0.70721,0.15511 -2.82968,-1.37906 -4.20568,-3.19894 -1.02256,-1.35243 -1.35379,-3.07197 -1.86484,-3.26381 1.11683,-12.61027 -1.75285,-8.47156 -4.71852,-1.85623 -0.90736,2.02401 -2.87243,2.58193 -3.40345,5.11886 -0.524583,2.50618 0.11553,6.32079 0.06311,8.59006 -0.108388,7.27531 6.56723,8.83426 5.61781,8.60014 -0.49977,-0.12325 -9.570008,1.37643 -11.343672,-1.46786 -0.766417,-1.22905 -1.983486,-2.75697 -2.297118,-4.3732 -0.288136,-1.48485 0.149866,-3.77766 -0.240004,-4.89139 -0.892699,-2.55013 -0.07956,-2.26545 -1.155043,-4.88375 -0.793474,-1.93174 2.421998,-3.99055 2.649671,-5.88655 0.42512,-3.54028 2.931878,-4.90459 4.178882,-7.29343 1.83987,-3.52458 2.404609,-7.10619 1.463883,-6.89613 -4.12305,0.92065 -5.566431,7.58638 -9.161094,9.36043 -1.239001,0.61148 -2.680418,2.10271 -2.493523,4.52644 0.255698,3.316 2.336551,7.56229 0.942363,6.2149 -1.593279,-1.5398 -8.061699,-5.4441 -4.521635,-10.20595 3.788881,-5.09653 -0.582906,-8.13018 5.860418,-10.7375 3.18809,-1.29008 7.02231,-10.04131 15.859912,-8.819 2.18977,0.30287 6.52183,-0.1589 10.78105,-2.08455 3.79418,-1.71541 7.49838,-4.94638 10.07869,-4.33527 1,-1 8,-21 8,-32 0,-11 -1,-17 -5,-30 -4,-16 -6.90915,-35.675086 -8.90915,-36.675086 -2,-1 -9,-1 -19,-3 -13.999995,-1 -16.935012,0.649215 -30.935012,-0.350785 -16,-1 -27,1 -32,0 C 33.155836,90.974129 33,92 32,91 c -1,-1 -2,-4 -1,-4 1,0 2,-1 2,-1 l 0.975207,-2.964187 1.261708,2.07438 1,-2.534435 1.848485,1.969697 0.490358,-2.418733 1.779614,1.652892 0.754821,-2.336088 L 42.482094,83 l 1.016529,-1.991736 1.636363,1.561984 0.592287,-2.121212 1.787879,1.5427 1.093664,-2.40496 1.796143,1.625345 0.796143,-2.314049 1.517906,1.545454 1.151515,-2.214876 1.669422,1.31405 0.873278,-1.829202 1.584022,1.041323 1.008265,-1.661157 c -0.723441,-0.599139 1.046725,0.796609 1.636364,1.247934 l 0.60055,-2.035813 1.330579,1.212121 0.983471,-2.159779 1.4573,1.269972 1.118457,-2.101928 1.322314,1.289256 1.008265,-2.170799 1.881543,1.5427 0.881542,-2.049587 1.457301,1.490358 0.898071,-2.203857 1.5427,1.501378 1.236915,-2.280992 1.228649,1.652893 1.161995,-2.267818 1.594297,1.38191 0.640779,-1.957402 1.964169,0.966977 1.292324,-1.653199 1.243278,1.197895 0.824921,-1.676627 2.220385,1.465564 c 0,0 6.187326,-7.493113 11.187326,-8.493113 5.999995,-2 -3.316801,-4.559229 -3.316801,-4.559229 l -5.132231,-1.575758 -5.975207,-1.391184 -1.440771,1.603306 -1.338844,-1.881542 -1.236915,1.9146 -0.779613,-2.024793 -1.889808,1.75482 -0.796143,-2.15427 -1.661157,1.705235 -1.118457,-2.203857 -1.228651,2.033057 -1.228649,-2.3719 -1.338843,2.203857 -1.550966,-2.129477 -1.008263,2.121212 -1.661157,-2.203857 -1.008265,1.837466 -1.669421,-1.947658 -1.881543,2.203856 -0.779614,-2.655647 -1.779614,2.545454 -1.220386,-2.534435 -1.440771,2.168044 -1.110193,-2.278237 -1.669422,2.093664 -1.008264,-2.325068 -1.550964,2.104683 -1,-2.754821 -1.449036,2.363636 L 48.338843,51 46.669421,53.534435 45.440772,50.752066 43.787879,52.975207 43,50 41.669421,52.829201 40.22865,49.889807 38.567493,52.305785 37.22865,49.556474 35.236915,51.975207 34.787879,49 32.889807,51.523416 32,48 c -2.013325,-2.213599 -3.170268,-0.18378 -0.194948,-4.091466 4.012935,-3.441638 5,-4 11,-5 23,-2 22,0 45,-1 9,-1 10,-4 17.999998,-2 7,1 8,2 14,5 8,3 9,2 16,5 8,3 9,3 16,8 6,4 1.70157,-0.05174 9.59748,6.013242 3.59323,6.467813 4.08285,4.437246 4.85259,7.373658 0.17681,0.674496 -0.7387,1.980095 -0.33966,3.291368 0.22391,0.735758 0.8833,0.349269 1.21125,1.361074 C 167.21047,72.206313 166.90844,73.72133 167,74 c 0.27103,1.287377 1.69246,2.17139 1.928,3.428732 0.24924,1.33046 -0.68945,3.032303 -0.47708,4.323399 0.30346,1.844817 1.73957,3.25685 1.97508,5.006677 0.17079,1.268927 -0.84394,2.900205 -0.70498,4.111375 0.1793,1.56286 1.50223,2.685314 1.63478,4.139496 0.14371,1.576578 -0.90675,3.474733 -0.80936,4.906305 0.0795,1.168106 1.31378,1.895356 1.36784,2.956056 0.0578,1.13416 -1.06629,2.59372 -1.03176,3.59354 0.0479,1.38661 1.24502,2.2487 1.26183,3.34954 C 172.16877,111.41514 171,113.08611 171,114 c 0,3.52605 0.49732,4.06817 2.19339,4.78281 0.70899,0.29873 1.84783,-0.63961 3.027,-0.05 0.7734,0.3867 1.22673,1.97416 1.82859,2.24079 0.7875,0.34887 1.32734,-0.7352 2.27624,-0.46717 0.9489,0.26803 2.08423,1.80914 3.43015,1.92948 1.27632,0.11411 3.07173,-1.045 5.46502,-0.7031 1.91015,0.19102 3.24806,1.52932 4.6106,1.57663 0.72472,0.0252 1.39406,0.0436 2.0315,0.0698 0.90583,0.0372 1.95654,-1.19942 2.76457,-1.16225 1.37375,0.0632 2.46271,1.4126 3.96922,1.57851 0.99652,0.10975 2.29969,-1.01109 3.54445,-0.80934 1.18984,0.19285 2.3073,1.70351 3.85927,2.0139 0.69116,0.17279 1.55045,-0.94403 2.14549,-0.81151 2.09349,0.46623 3.42364,1.97838 4.79629,2.1986 1.0916,0.17513 2.29108,-0.93259 3.34128,-0.68986 0.98573,0.22782 1.95029,1.01083 3.14887,1.83651 0.30287,0.20864 3.05794,-0.46339 4.84348,0.72192 1.09431,0.72644 1.58195,2.17863 3.1428,2.75927 4.31221,-0.84553 3.7794,-1.5717 5.40008,3.63459 0,0 3.61459,-0.43451 4.83966,0.42194 1.60512,1.12214 0.19406,2.58122 2.04327,3.36429 1.09914,0.46544 2.97778,-0.32974 4.19335,0.26366 1.1592,0.56588 1.26228,2.43663 2.45621,3.11888 1.94531,0.97265 3.39038,-0.84792 4.15169,0.10092 2.36787,2.95113 0.15734,2.23545 2.21203,3.2628 2.66246,-2.50631 4.68864,1.93502 4.68864,1.93502 0,0 0.91175,-2.18128 3.5082,1.31746 0.91902,1.2384 3.07917,-0.14757 5.06542,0.0195 1.22175,0.10278 3.35272,1.5471 4.51261,1.55718 1.75062,0.0152 4.1766,-1.13272 4.83676,-1.16151 1.42862,-0.0623 3.62286,1.06181 5.37789,0.85137 1.40516,-0.16848 2.33298,-1.66795 3.81581,-1.78336 0.66668,-0.0519 1.89006,1.21727 2.57772,1.15803 1.57247,-0.13546 2.65023,-1.61539 4.30521,-1.79347 1.65836,-0.17845 3.89406,0.94485 5.59724,0.71776 2.0458,-0.27277 3.26716,-1.81435 4.83356,-1.99328 1.8362,-0.20974 3.94248,0.95741 5.35468,0.82362 1.37324,-0.1301 2.06048,-1.56242 3.26907,-1.67405 1.27617,-0.11787 3.07092,1.08449 4.43053,0.92692 1.55774,-0.18054 2.71483,-1.73208 4.76837,-2.05196 1.6587,-0.25838 4.09185,0.7472 6.31727,0.34299 0.64615,-0.11737 0.61951,-1.09901 1.32526,-1.23134 9.1429,-2.53249 4.35139,-0.0653 4.35139,-0.0653 0,0 0.29798,-0.88903 3.69114,-2.34743 1.21615,-0.52271 3.53255,-0.38727 4.8297,-0.95996 1.09339,-0.48273 2.88356,-2.76247 3.91189,-3.23326 1.53714,-0.70373 3.6402,-0.51278 4.71939,-1.06884 0.98362,-0.50682 1.69924,-0.9222 2.00503,-1.19124 0.67206,-0.59128 0.16797,-1.72409 0.73366,-2.44049 0.42281,-0.53546 1.95908,-0.63197 2.23302,-1.21497 0.54377,-1.15726 0.71887,-2.38934 0.22604,-3.62142 -0.53204,-1.33009 -2.66459,-1.37133 -3.75368,-2.18201 -1.15497,-0.85972 -1.2918,-2.46825 -2.72427,-3.18005 -1.39945,-0.6954 -1.98852,-0.49234 -3.31392,-1.47019 -0.48383,-0.35697 -1.85414,-0.5838 -2.53734,-1.27798 -0.51378,-0.52203 -0.36815,-1.51148 -0.67079,-1.88977 -0.69207,-0.69207 -1.90105,-1.22831 -2.39253,-1.92038 -0.75257,-1.05973 -0.52959,-1.76272 -0.74253,-2.85799 -0.14448,-0.74312 -0.87702,-1.53883 -1.07578,-2.38462 -0.14628,-0.62249 0.21084,-1.30782 0.21084,-1.83701 -0.41025,-1.23074 -0.87348,-3.33104 -0.54147,-4.82934 0.2301,-1.0384 1.04463,-0.87778 1.6874,-1.98855 0.39373,-0.68041 0.40169,-2.170783 0.96418,-3.01688 0.42394,-0.637698 1.36482,-0.640164 1.88989,-1.16523 0.48914,-0.815236 0.38152,-2.044812 0.94117,-2.749376 0.52479,-0.660682 1.71155,-0.803292 2.32788,-1.359273 0.81978,-0.739507 1.8111,-2.162418 2.85176,-2.701961 0.77149,-0.399991 1.53501,0.03646 2.4601,-0.24558 0.61856,-0.188586 1.1966,-0.817548 1.89405,-0.950843 0.65125,-0.124464 1.41659,0.243131 2.14354,0.168601 1.0426,-0.106892 1.93273,-0.706995 3.14775,-0.706995 1.15747,-0.178073 2.50113,0.205136 3.56842,0.06089 1.33051,-0.17982 2.36102,-0.7213 3.56862,-0.841157 1.05385,-0.104597 2.2983,0.204792 3.27219,0.151713 1.22544,-0.06679 2.62638,-0.324389 3.74798,-0.299861 0.61374,0.01342 1.00649,0.482438 1.54035,0.580386 0.60329,0.110686 1.34362,-0.144566 1.98213,-0.0551 0.78338,0.109762 1.54901,0.251012 2.30245,0.426122 0.53503,0.124348 1.21975,0.265771 1.74446,0.425117 0.57124,0.173481 0.98171,0.368206 1.54563,0.585271 0.924,0.355667 2.15327,0.303804 3.07571,0.784251 0.72763,0.378986 1.14662,1.265802 1.88581,1.727797 8,5 7,9.999998 7,9.999998 0,0 -6,-5.999998 -14,-6.999998 -10,-1 -14,-2 -21,2 -6,2.999998 -7,5.999998 -5,11.999998 2,5 9,5 12,6 3,2 9,4 11,12 2,8 -4,18 -4,18 0,0 -6,10 -33,23 -28,12 -24,9 -46,21 -12,7 -13,7 -23,16 l 0,0 M 108.50631,45.220206 c 0,-2 -2.8571,-3.38959 -4.8571,-3.38959 -1.4776,0 -2.44988,1.040672 -3.53066,1.545034 -1.113553,0.519654 -2.313498,0.51795 -2.313498,1.532884 0,2 2.844158,1.675392 5.844158,1.675392"
       id="path3394"
       inkscape:connector-curvature="0"
       style="fill:#ff6600;fill-opacity:1"
       sodipodi:nodetypes="cccccccccsccscccsccccccccccccscccccccccccscccccccscccsccscccccscccscccscccccscccscccccscccccccccccccscscsssscsscssssssssssssssscscscccsscccccccccccccccccccccccccccccccccccccccccccccccccccccccccccccccccccccccccccccccccccccccccccccccccssscssssssssssssszscssssscsssssccssscsccsssssssssssssssccsssssssssssscssscssscsssssscssssssssssscccccsccccccsssc" />
  </g>
</svg>
